# xmcd CD database file
# Copyright (C) 1997 Ti Kan
# 
# Track frame offsets:
#     150
#     16225
#     32235
#     49125
#     66787
#     88222
#     105582
#     123757
#     144404
#     177679
#     196162
#     211802
#     230829
#     252679
#     272754
#     292764
# 
# Disc length: 4182 seconds
# 
# Revision: 1
# Processed by: cddbd v1.4b41PL1 Copyright (c) Steve Scherf et al.
# Submitted via: DiscPlay 4.0.4
# 
DISCID=ec105410
DTITLE=Janet Jackson - Design Of A Decade 1986/1996
DYEAR=1900
DGENRE=
TTITLE0=Runaway
TTITLE1=What Have You Done For Me Lately?
TTITLE2=Nasty
TTITLE3=When I Think Of You
TTITLE4=Escapade
TTITLE5=Miss You Much
TTITLE6=Diamonds (with Herp Alpert)
TTITLE7=Love Will Never Do (Without You)
TTITLE8=The 1814 Megamix
TTITLE9=The Best Things In Life Are Free
TTITLE10=Control
TTITLE11=The Pleasure Principle
TTITLE12=Black Cat (featuring Vernon Reid)
TTITLE13=Rhythm Nation
TTITLE14=That's The Way Love Goed
TTITLE15=Let's Wait Awhile
EXTD=
EXTT0=
EXTT1=
EXTT2=
EXTT3=
EXTT4=
EXTT5=
EXTT6=
EXTT7=
EXTT8=
EXTT9=
EXTT10=
EXTT11=
EXTT12=
EXTT13=
EXTT14=
EXTT15=
PLAYORDER=
